<?xml version="1.0" standalone="no"?>
<!DOCTYPE svg PUBLIC "-//W3C//DTD SVG 20010904//EN"
 "http://www.w3.org/TR/2001/REC-SVG-20010904/DTD/svg10.dtd">
<svg version="1.0" xmlns="http://www.w3.org/2000/svg"
 width="64.000000pt" height="64.000000pt" viewBox="0 0 64.000000 64.000000"
 preserveAspectRatio="xMidYMid meet">

<g transform="translate(0.000000,64.000000) scale(0.100000,-0.100000)"
fill="#000000" stroke="none">
<path d="M257 622 c-13 -14 -17 -38 -17 -100 0 -112 -10 -122 -123 -122 -100
0 -117 -12 -117 -82 0 -66 18 -78 118 -78 112 0 122 -10 122 -123 0 -100 12
-117 82 -117 66 0 78 18 78 118 0 112 10 122 123 122 100 0 117 12 117 82 0
66 -18 78 -118 78 -112 0 -122 10 -122 123 0 69 -3 87 -18 100 -26 24 -104 23
-125 -1z"/>
</g>
</svg>
