<?xml version="1.0" standalone="no"?>
<!DOCTYPE svg PUBLIC "-//W3C//DTD SVG 20010904//EN"
 "http://www.w3.org/TR/2001/REC-SVG-20010904/DTD/svg10.dtd">
<svg version="1.0" xmlns="http://www.w3.org/2000/svg"
 width="700.000000pt" height="700.000000pt" viewBox="0 0 700.000000 700.000000"
 preserveAspectRatio="xMidYMid meet">
<metadata>
Created by potrace 1.14, written by Peter Selinger 2001-2017
</metadata>
<g transform="translate(0.000000,700.000000) scale(0.100000,-0.100000)"
fill="#000000" stroke="none">
<path d="M2469 6706 c-2 -2 -40 -6 -84 -10 -44 -3 -91 -8 -105 -11 -14 -3 -45
-8 -70 -11 -75 -10 -303 -71 -387 -103 -43 -17 -81 -31 -85 -31 -13 0 -239
-113 -313 -157 -591 -346 -1012 -977 -1110 -1661 -14 -98 -16 -124 -19 -287
-4 -195 6 -329 39 -491 88 -433 290 -826 587 -1139 240 -254 511 -439 825
-564 105 -42 305 -104 373 -115 14 -3 50 -9 80 -15 87 -16 119 -20 210 -28
150 -12 373 -7 510 12 64 9 109 16 150 26 25 5 54 11 65 14 292 62 657 236
900 430 l31 24 102 -97 103 -97 -1 -156 0 -157 202 -193 c221 -213 208 -200
434 -416 87 -83 193 -184 234 -223 419 -401 453 -434 696 -666 271 -261 297
-284 309 -284 6 0 20 10 31 22 18 20 175 171 442 425 45 43 82 82 82 87 0 5
-24 32 -52 59 -29 27 -136 129 -237 226 -101 97 -205 196 -231 221 -26 25
-127 122 -225 215 -98 94 -201 193 -230 220 -29 28 -130 124 -225 215 -95 91
-196 188 -225 215 -29 28 -135 129 -235 225 -101 96 -190 180 -199 186 -10 6
-78 10 -175 9 l-159 -1 -51 47 c-86 78 -146 137 -146 143 0 3 19 27 43 54 63
73 77 91 133 167 50 69 98 140 119 180 6 11 28 49 47 85 88 157 202 470 224
615 3 17 7 41 10 55 44 198 50 530 13 770 -50 322 -155 599 -342 905 -107 175
-369 458 -548 592 -167 126 -378 244 -554 312 -178 68 -380 120 -530 136 -27
3 -61 8 -75 12 -28 6 -375 14 -381 9z m431 -466 c782 -118 1422 -752 1554
-1540 22 -130 29 -403 13 -530 -10 -85 -47 -260 -58 -282 -6 -10 -8 -18 -5
-18 6 0 -33 -114 -69 -200 -184 -441 -543 -805 -989 -1000 -87 -38 -253 -89
-358 -110 -57 -11 -116 -22 -133 -26 -50 -10 -375 -12 -455 -3 -892 105 -1582
817 -1656 1709 -5 65 -5 279 1 320 2 19 7 58 11 85 9 80 22 143 50 245 181
667 734 1188 1411 1329 148 31 149 31 283 38 69 3 126 6 127 7 5 4 204 -14
273 -24z"/>
<path d="M1968 5620 c-262 -82 -335 -414 -131 -600 65 -59 141 -90 230 -92
l64 -2 95 -158 95 -158 -30 -62 c-17 -34 -31 -71 -31 -84 0 -12 -3 -29 -6 -37
-3 -9 -92 -44 -224 -88 l-218 -73 -40 36 c-116 105 -308 116 -433 26 -61 -44
-86 -75 -122 -148 -27 -56 -31 -76 -31 -145 0 -69 4 -89 31 -145 37 -79 97
-141 172 -177 49 -25 68 -28 151 -28 85 0 101 3 153 30 101 51 181 155 194
254 6 47 -11 38 267 130 l180 59 40 -34 c22 -19 52 -39 68 -46 15 -7 29 -15
29 -18 1 -3 2 -94 3 -203 l1 -199 -42 -24 c-103 -61 -174 -178 -178 -297 -10
-272 272 -454 515 -332 56 29 125 95 153 149 85 167 33 363 -125 468 l-56 37
1 201 0 201 38 20 c21 10 61 42 89 71 l50 51 203 -33 204 -34 13 -35 c39 -113
131 -198 245 -228 73 -20 85 -20 156 -9 129 21 244 127 280 256 44 162 -36
337 -188 412 -60 29 -76 33 -153 33 -75 0 -93 -4 -150 -31 -59 -28 -150 -105
-150 -126 0 -8 -32 -6 -95 6 -11 2 -40 7 -65 11 -25 4 -52 9 -61 10 -9 2 -34
6 -55 10 -158 24 -147 20 -165 75 l-17 49 147 185 c141 179 147 185 176 179
232 -46 442 135 430 371 -10 179 -156 324 -337 331 -172 7 -310 -94 -363 -265
-13 -41 -7 -154 10 -201 9 -24 17 -49 18 -56 1 -6 -64 -95 -146 -196 l-148
-185 -36 10 c-20 5 -55 8 -78 5 l-43 -4 -59 99 c-32 54 -63 106 -68 116 -6 9
-22 37 -37 62 l-27 45 32 65 c29 58 32 73 32 155 0 78 -4 97 -27 145 -83 166
-259 244 -430 190z"/>
</g>
</svg>
